<svg width="100" height="65" xmlns="http://www.w3.org/2000/svg">

 <g>
  <title>background</title>
  <rect fill="none" id="canvas_background" height="67" width="102" y="-1" x="-1"/>
 </g>
 <g>
  <title>Layer 1</title>
  <g stroke="null" id="svg_1" class="ng-presentation ng-isolate-scope ng-pristine ng-valid">
   <g stroke="null" id="svg_2" transform="translate(0,35.691253662109375) scale(0.3962264060974121) " class="logo-preview ng-scope">
    <g stroke="null" id="svg_3" class="logo-ctn">
     <g stroke="null" transform="translate(0,0) scale(3.3345489501953125) " id="item-sgwwdsmy5ptjg1oirzhu74nrhq926o5e" class="logo">
      <path stroke="null" id="svg_4" fill="#31363e" d="m69.442005,-5.230579l-14.612669,-11.780594c-3.013515,-2.429621 -7.945059,-2.429621 -10.958574,0l-14.611741,11.780594c-0.038992,0.031437 -0.066843,0.068862 -0.104907,0.101047c-0.212599,-0.023952 -0.422412,-0.052395 -0.642438,-0.052395c-2.588318,0 -4.699449,1.701334 -4.699449,3.788892c0,1.964056 1.876252,3.568085 4.254756,3.752215c0.004642,0.007485 0.007427,0.01497 0.012997,0.021706l0.023209,-0.018712c0.135543,0.010479 0.268301,0.033682 0.407558,0.033682c2.588318,0 4.699449,-1.701334 4.699449,-3.788892c0,-0.109281 -0.02878,-0.212573 -0.03992,-0.319608l14.856833,-11.949006c0.719493,-0.580085 1.926384,-0.580085 2.646806,0l14.611741,11.780594c0.719493,0.580085 0.719493,1.55388 0,2.133965l-14.611741,11.780594c-0.719493,0.580834 -1.926384,0.580834 -2.646806,0l-7.206998,-5.810582l-4.165632,3.342788l7.216282,5.818067c3.013515,2.429621 7.945059,2.429621 10.958574,0l14.611741,-11.780594c3.014443,-2.429621 3.014443,-6.40414 0.000928,-8.833761z" clip-rule="evenodd" fill-rule="evenodd"/>
      <path stroke="null" id="svg_5" fill="#e1001a" d="m46.623402,-4.60259c-2.588318,0 -4.699449,1.701334 -4.699449,3.788892c0,0.188621 0.036207,0.369009 0.0687,0.550145l-15.291314,12.297805c-0.719493,0.580834 -1.927313,0.580834 -2.646806,0l-14.610813,-11.781342c-0.720421,-0.579337 -0.720421,-1.553131 0,-2.133965l14.611741,-11.780594c0.719493,-0.580085 1.927313,-0.580085 2.646806,0l7.206998,5.810582l4.164704,-3.342039l-7.216282,-5.818067c-3.013515,-2.429621 -7.94413,-2.429621 -10.957645,0l-14.611741,11.780594c-3.014443,2.429621 -3.014443,6.404889 0,8.83451l14.611741,11.780594c3.014443,2.429621 7.94413,2.429621 10.957645,0l14.611741,-11.780594c0.259017,-0.208831 0.4809,-0.436374 0.695355,-0.666162c0.153182,0.011976 0.301723,0.037425 0.458619,0.037425c2.588318,0 4.700378,-1.702082 4.700378,-3.78964s-2.111132,-3.788143 -4.700378,-3.788143z" clip-rule="evenodd" fill-rule="evenodd"/>
     </g>
    </g>
   </g>
  </g>
 </g>
</svg>